<mxfile host="app.diagrams.net" modified="2022-07-13T06:27:20.135Z" agent="5.0 (Windows NT 10.0; Win64; x64) AppleWebKit/537.36 (KHTML, like Gecko) Chrome/103.0.0.0 Safari/537.36" etag="CsYQ04rhxklTiol5a9S6" version="20.1.1" type="github">
  <diagram id="2nbE3SPKHdvBrMVGTYsQ" name="Page-1">
    <mxGraphModel dx="779" dy="383" grid="1" gridSize="10" guides="1" tooltips="1" connect="1" arrows="1" fold="1" page="1" pageScale="1" pageWidth="827" pageHeight="1169" math="0" shadow="0">
      <root>
        <mxCell id="0" />
        <mxCell id="1" parent="0" />
        <mxCell id="rXOJRejNhc5dMeXMPJgj-15" style="edgeStyle=orthogonalEdgeStyle;rounded=0;orthogonalLoop=1;jettySize=auto;html=1;exitX=1;exitY=0.5;exitDx=0;exitDy=0;entryX=0;entryY=0.5;entryDx=0;entryDy=0;" edge="1" parent="1" source="rXOJRejNhc5dMeXMPJgj-2" target="rXOJRejNhc5dMeXMPJgj-13">
          <mxGeometry relative="1" as="geometry" />
        </mxCell>
        <mxCell id="rXOJRejNhc5dMeXMPJgj-2" value="数据侧开发" style="rounded=0;whiteSpace=wrap;html=1;" vertex="1" parent="1">
          <mxGeometry x="190" y="264" width="110" height="60" as="geometry" />
        </mxCell>
        <mxCell id="rXOJRejNhc5dMeXMPJgj-25" style="edgeStyle=orthogonalEdgeStyle;rounded=0;orthogonalLoop=1;jettySize=auto;html=1;entryX=0;entryY=0.5;entryDx=0;entryDy=0;fontSize=8;" edge="1" parent="1" source="rXOJRejNhc5dMeXMPJgj-3" target="rXOJRejNhc5dMeXMPJgj-21">
          <mxGeometry relative="1" as="geometry" />
        </mxCell>
        <mxCell id="rXOJRejNhc5dMeXMPJgj-3" value="&lt;p class=&quot;MsoNormal&quot;&gt;&lt;span&gt;测试侧开发&lt;/span&gt;&lt;/p&gt;" style="rounded=0;whiteSpace=wrap;html=1;" vertex="1" parent="1">
          <mxGeometry x="190" y="450" width="110" height="60" as="geometry" />
        </mxCell>
        <mxCell id="rXOJRejNhc5dMeXMPJgj-7" style="edgeStyle=orthogonalEdgeStyle;rounded=0;orthogonalLoop=1;jettySize=auto;html=1;exitX=1;exitY=0.5;exitDx=0;exitDy=0;" edge="1" parent="1" source="rXOJRejNhc5dMeXMPJgj-4">
          <mxGeometry relative="1" as="geometry">
            <mxPoint x="149.76" y="365.61" as="sourcePoint" />
            <mxPoint x="190" y="300" as="targetPoint" />
            <Array as="points">
              <mxPoint x="160" y="380" />
              <mxPoint x="160" y="300" />
              <mxPoint x="190" y="300" />
            </Array>
          </mxGeometry>
        </mxCell>
        <mxCell id="rXOJRejNhc5dMeXMPJgj-4" value="缺陷模型检测算法" style="rounded=0;whiteSpace=wrap;html=1;" vertex="1" parent="1">
          <mxGeometry x="30" y="350" width="110" height="60" as="geometry" />
        </mxCell>
        <mxCell id="rXOJRejNhc5dMeXMPJgj-8" value="" style="endArrow=classic;html=1;rounded=0;exitX=1;exitY=0.5;exitDx=0;exitDy=0;startArrow=none;" edge="1" parent="1" source="rXOJRejNhc5dMeXMPJgj-1">
          <mxGeometry width="50" height="50" relative="1" as="geometry">
            <mxPoint x="140" y="380" as="sourcePoint" />
            <mxPoint x="220" y="380" as="targetPoint" />
            <Array as="points">
              <mxPoint x="220" y="380" />
            </Array>
          </mxGeometry>
        </mxCell>
        <mxCell id="rXOJRejNhc5dMeXMPJgj-9" value="" style="endArrow=classic;html=1;rounded=0;entryX=0;entryY=0.5;entryDx=0;entryDy=0;" edge="1" parent="1" target="rXOJRejNhc5dMeXMPJgj-3">
          <mxGeometry width="50" height="50" relative="1" as="geometry">
            <mxPoint x="140" y="380" as="sourcePoint" />
            <mxPoint x="210" y="420" as="targetPoint" />
            <Array as="points">
              <mxPoint x="160" y="380" />
              <mxPoint x="160" y="480" />
            </Array>
          </mxGeometry>
        </mxCell>
        <mxCell id="rXOJRejNhc5dMeXMPJgj-19" style="edgeStyle=orthogonalEdgeStyle;rounded=0;orthogonalLoop=1;jettySize=auto;html=1;exitX=1;exitY=0.5;exitDx=0;exitDy=0;entryX=0;entryY=0.5;entryDx=0;entryDy=0;fontSize=8;" edge="1" parent="1" source="rXOJRejNhc5dMeXMPJgj-1" target="rXOJRejNhc5dMeXMPJgj-17">
          <mxGeometry relative="1" as="geometry" />
        </mxCell>
        <mxCell id="rXOJRejNhc5dMeXMPJgj-1" value="模型侧开发" style="rounded=0;whiteSpace=wrap;html=1;" vertex="1" parent="1">
          <mxGeometry x="190" y="350" width="110" height="60" as="geometry" />
        </mxCell>
        <mxCell id="rXOJRejNhc5dMeXMPJgj-12" value="" style="endArrow=classic;html=1;rounded=0;exitX=1;exitY=0.5;exitDx=0;exitDy=0;" edge="1" parent="1" source="rXOJRejNhc5dMeXMPJgj-4">
          <mxGeometry width="50" height="50" relative="1" as="geometry">
            <mxPoint x="140" y="430" as="sourcePoint" />
            <mxPoint x="190" y="380" as="targetPoint" />
          </mxGeometry>
        </mxCell>
        <mxCell id="rXOJRejNhc5dMeXMPJgj-13" value="&lt;font style=&quot;font-size: 10px;&quot;&gt;数据标注&lt;/font&gt;" style="rounded=0;whiteSpace=wrap;html=1;" vertex="1" parent="1">
          <mxGeometry x="340" y="244" width="70" height="40" as="geometry" />
        </mxCell>
        <mxCell id="rXOJRejNhc5dMeXMPJgj-14" value="&lt;font style=&quot;font-size: 8px;&quot;&gt;缺陷辨识&lt;/font&gt;" style="rounded=0;whiteSpace=wrap;html=1;" vertex="1" parent="1">
          <mxGeometry x="340" y="295" width="70" height="40" as="geometry" />
        </mxCell>
        <mxCell id="rXOJRejNhc5dMeXMPJgj-16" style="edgeStyle=orthogonalEdgeStyle;rounded=0;orthogonalLoop=1;jettySize=auto;html=1;exitX=1;exitY=0.5;exitDx=0;exitDy=0;entryX=0;entryY=0.5;entryDx=0;entryDy=0;" edge="1" parent="1" source="rXOJRejNhc5dMeXMPJgj-2">
          <mxGeometry relative="1" as="geometry">
            <mxPoint x="310" y="304" as="sourcePoint" />
            <mxPoint x="340" y="314" as="targetPoint" />
            <Array as="points">
              <mxPoint x="320" y="294" />
              <mxPoint x="320" y="314" />
            </Array>
          </mxGeometry>
        </mxCell>
        <mxCell id="rXOJRejNhc5dMeXMPJgj-17" value="&lt;span style=&quot;font-size: 10px;&quot;&gt;特征提取&lt;/span&gt;" style="rounded=0;whiteSpace=wrap;html=1;" vertex="1" parent="1">
          <mxGeometry x="340" y="340" width="70" height="40" as="geometry" />
        </mxCell>
        <mxCell id="rXOJRejNhc5dMeXMPJgj-18" value="&lt;span style=&quot;font-size: 8px;&quot;&gt;辅助标签技术&lt;/span&gt;" style="rounded=0;whiteSpace=wrap;html=1;" vertex="1" parent="1">
          <mxGeometry x="340" y="390" width="70" height="40" as="geometry" />
        </mxCell>
        <mxCell id="rXOJRejNhc5dMeXMPJgj-20" style="edgeStyle=orthogonalEdgeStyle;rounded=0;orthogonalLoop=1;jettySize=auto;html=1;entryX=0;entryY=0.5;entryDx=0;entryDy=0;fontSize=8;" edge="1" parent="1" target="rXOJRejNhc5dMeXMPJgj-18">
          <mxGeometry relative="1" as="geometry">
            <mxPoint x="300" y="380" as="sourcePoint" />
            <mxPoint x="350" y="370" as="targetPoint" />
          </mxGeometry>
        </mxCell>
        <mxCell id="rXOJRejNhc5dMeXMPJgj-21" value="&lt;span style=&quot;font-size: 10px;&quot;&gt;测试接口&lt;/span&gt;" style="rounded=0;whiteSpace=wrap;html=1;" vertex="1" parent="1">
          <mxGeometry x="340" y="440" width="70" height="40" as="geometry" />
        </mxCell>
        <mxCell id="rXOJRejNhc5dMeXMPJgj-22" value="&lt;span style=&quot;font-size: 8px;&quot;&gt;性能分析&lt;/span&gt;" style="rounded=0;whiteSpace=wrap;html=1;" vertex="1" parent="1">
          <mxGeometry x="340" y="485" width="70" height="40" as="geometry" />
        </mxCell>
        <mxCell id="rXOJRejNhc5dMeXMPJgj-26" style="edgeStyle=orthogonalEdgeStyle;rounded=0;orthogonalLoop=1;jettySize=auto;html=1;entryX=0;entryY=0.5;entryDx=0;entryDy=0;fontSize=8;exitX=1;exitY=0.5;exitDx=0;exitDy=0;" edge="1" parent="1" source="rXOJRejNhc5dMeXMPJgj-3" target="rXOJRejNhc5dMeXMPJgj-22">
          <mxGeometry relative="1" as="geometry">
            <mxPoint x="310" y="490" as="sourcePoint" />
            <mxPoint x="350" y="470" as="targetPoint" />
            <Array as="points">
              <mxPoint x="320" y="480" />
              <mxPoint x="320" y="505" />
            </Array>
          </mxGeometry>
        </mxCell>
      </root>
    </mxGraphModel>
  </diagram>
</mxfile>
